# xmcd CD database file
#
# Track frame offsets:
#	183
#	12393
#	23550
#	34803
#	45640
#	67713
#	95145
#	118888
#	143328
#	167970
#	199715
#	232743
#	259013
#	292923
#
# Disc length: 4250 seconds
#
# Revision: 0
# Processed by: cddbd v1.5.1PL0 Copyright (c) Steve Scherf et al.
# Submitted via: CDex 1.51
#
DISCID=b410980e
DTITLE=Various Artist - 50 years of Belgian Jazz
DYEAR=1988
DGENRE=Jazz
TTITLE0=Big Chief, swing it
TTITLE1=Introducing Mr. Basie
TTITLE2=At the darktown strutters ball
TTITLE3=Swing me high
TTITLE4=On stage
TTITLE5=But not for me
TTITLE6=The same
TTITLE7=Daffodils
TTITLE8=Juul's ears
TTITLE9=Stunt man
TTITLE10=Song from your father
TTITLE11=A picture of her
TTITLE12=Transparence
TTITLE13=Rough business
EXTD=YEAR: 1988
EXTT0=
EXTT1=
EXTT2=
EXTT3=
EXTT4=
EXTT5=
EXTT6=
EXTT7=
EXTT8=
EXTT9=
EXTT10=
EXTT11=
EXTT12=
EXTT13=
PLAYORDER=
